<?xml version="1.0" encoding="UTF-8"?>
<svg id="Layer_1" data-name="Layer 1" xmlns="http://www.w3.org/2000/svg" version="1.1" xmlns:xlink="http://www.w3.org/1999/xlink" viewBox="0 0 652.56 632.41">
  <defs>
    <style>
      .cls-1 {
        fill: url(#linear-gradient);
      }

      .cls-1, .cls-2, .cls-3, .cls-4, .cls-5 {
        stroke-width: 0px;
      }

      .cls-2 {
        fill: #000;
      }

      .cls-3 {
        fill: url(#linear-gradient-2);
      }

      .cls-4 {
        fill: url(#linear-gradient-3);
      }

      .cls-5 {
        fill: #fff;
      }
    </style>
    <linearGradient id="linear-gradient" x1="79.56" y1="372.23" x2="571.65" y2="372.23" gradientUnits="userSpaceOnUse">
      <stop offset=".27" stop-color="#ed1c24"/>
      <stop offset=".59" stop-color="#f7931e"/>
    </linearGradient>
    <linearGradient id="linear-gradient-2" x1="537.86" y1="458.74" x2="471.05" y2="381.55" xlink:href="#linear-gradient"/>
    <linearGradient id="linear-gradient-3" x1="84.14" y1="334.75" x2="203.86" y2="334.75" xlink:href="#linear-gradient"/>
  </defs>
  <path class="cls-1" d="M571.63,415.27v4.37c-1.24-2.46-1.84-3.54-2.35-4.66-6.6-14.45-18.91-21.48-33.46-25.3-18.66-4.91-37.64-4.42-56.62-2.55-46.16,4.53-90.4,17.71-134.9,29.89-43.82,11.99-87.34,25.25-132.2,33.13-25.64,4.5-51.38,7.98-77.52,5.5-11.69-1.1-23.16-3.27-33.44-9.27-13.01-7.58-20.21-18.32-20.15-34.18.1-25.97-.89-51.94-1.43-78.17,8.59,20.97,26.77,25.69,46.29,27.54,27.19,2.59,54.08-1.01,80.26-7.61,46.96-11.83,93.61-24.93,140.29-37.85,39.02-10.79,78.11-21.22,118.45-25.89,22.57-2.62,45.2-3.84,67.6,1.52,10.85,2.59,20.92,6.89,28.66,15.32,6.78,7.39,10.56,16.03,10.54,26.22-.04,27.33-.02,54.66-.02,81.99Z"/>
  <path class="cls-2" d="M315.72,319.22c.43-18.43.49-36.06,1.37-53.66.6-11.96-2.98-21.91-11.39-30.2-29.42-28.99-33.65-65.15-29.28-103.6,1.81-15.99,6.16-31.47,14.49-45.33,4.23-7.03,9.41-13.9,15.53-19.27,14.01-12.28,32.2-11.69,45.54,1.36,5.6,5.48,10.71,12.12,14.02,19.18,17.66,37.67,17.9,76.21,3.77,114.99-4.42,12.13-12.54,22.05-21.91,30.63-10.99,10.05-15.82,21.97-15.33,36.76.45,13.46-.24,26.96-.18,40.44.02,3.08-.93,4.46-3.88,5.13-4.19.95-8.28,2.3-12.77,3.58ZM328.46,63.81c4.78,3.53,9.95,6.63,14.23,10.67,8.83,8.34,13.7,19.15,17.1,30.61,6.6,22.25,6.88,44.92,4.64,67.83-2.25,22.97-9.61,43.46-26.78,59.66-.96.91-1.67,2.07-2.55,3.08-4.53,5.22-6.93,11.28-7.29,18.17-.76,14.63-1.62,29.25-2.29,43.88-.23,5.1-.04,10.22-.04,15.32,4.74.24,4.66-2.5,4.73-5.5.4-15.98,1.12-31.94,1.34-47.92.15-11.02,4.33-19.78,12.32-27.31,13.86-13.04,22.44-29.08,26.25-47.8,4.88-23.98,3.12-47.72-2.07-71.35-2.8-12.77-7.1-24.99-15.17-35.53-6.2-8.1-14.07-13.31-24.42-13.81Z"/>
  <path class="cls-2" d="M423.26,290.87c3.21-11.93,5.82-23.27,9.32-34.32,15.75-49.81,31.76-99.54,47.68-149.3,1.16-3.64,2.02-7.42,3.61-10.86,3.5-7.55,10.45-8.94,16.7-3.42,7.56,6.69,9.48,15.82,10.13,25.28,1.43,20.79-1.56,41.21-5.85,61.46-7.32,34.53-18.46,67.7-35.19,98.9-2.14,3.99-4.6,6.06-9.34,6.63-12.03,1.43-23.97,3.6-37.04,5.64ZM487.25,97.45c10.1.75,14.28,7.52,14.75,16.04.59,10.72.74,21.69-.82,32.28-5.59,38.07-17.92,74.29-31.87,109.98-3.62,9.27-7.64,18.38-11.5,27.62,4.18,1.47,6.13-.39,7.76-3.9,15.68-33.61,27.43-68.53,35.27-104.77,3.84-17.76,6.77-35.66,5.9-53.94-.38-7.97-2.44-15.47-7.22-21.97-3.78-5.15-7.67-5.56-12.27-1.35Z"/>
  <path class="cls-2" d="M120.83,101.97c1.43-.53,2.64-.98,4.46-1.66,10.31,28.47,20.53,56.71,30.75,84.95.35-.09.7-.18,1.04-.27-7.1-29.16-14.2-58.33-21.39-87.83,1.4-.62,2.7-1.19,4.64-2.05,10.31,28.13,20.5,55.93,30.69,83.73.34-.1.67-.21,1.01-.31-7.08-28.72-14.15-57.43-21.32-86.49,1.4-.59,2.7-1.13,4.63-1.94,10.63,28.82,21.13,57.3,31.64,85.79.35-.1.7-.2,1.05-.31-7.33-29.41-14.66-58.82-22.08-88.59,1.34-.6,2.64-1.19,4.39-1.98.89,2.1,1.71,3.86,2.4,5.67,12.94,33.91,25.78,67.85,38.86,101.71,1.98,5.11,1.14,8.29-2.9,12.18-9.77,9.41-14.14,21.94-10.95,34.7,5.76,23.05,13.43,45.63,20.63,68.3,3.71,11.69,8.12,23.17,12.4,35.28-5.78,1.37-11.2,2.66-17.04,4.05-2.75-10.69-5.17-21.04-8.09-31.23-6.84-23.83-13.54-47.72-21.04-71.35-4.68-14.74-15.93-22.48-31.04-24.64-3.92-.56-6.46-2.29-7.38-6.25-8.44-36.5-16.91-72.99-25.36-109.49-.11-.47-.01-.99-.01-1.98ZM225.74,341.54c-.31-1.11-.58-2.22-.91-3.3-7.78-25.12-15.59-50.24-23.34-75.37-2.3-7.47-5.05-14.88-6.52-22.52-3.02-15.72,2.56-29.16,12.61-41.02,1.84-2.17,2.69-4.02,1.52-7.11-12.89-33.92-25.58-67.92-38.36-101.88-.35-.92-1.01-1.73-1.52-2.59-.32,2.22.1,4.1.72,5.92,10.88,32.16,21.73,64.34,32.77,96.45,1.15,3.35.89,5.68-1.16,8.62-10.48,14.96-14.65,31.16-8.94,49.15,1.91,6.03,3.35,12.2,5.24,18.23,7.59,24.31,15.27,48.59,22.89,72.88.76,2.43,1.23,5.19,5.01,2.54Z"/>
  <path class="cls-2" d="M416.34,403.45c-1.77,6.6-3.33,12.16-4.76,17.75-8.03,31.59-16.03,63.18-24.05,94.77-4.16,16.38-14.39,26.92-30.5,31.99-2.61.82-3.93.28-5.31-1.85-7.46-11.43-10-23.91-5.38-36.7,11.47-31.75,23.63-63.24,35.66-94.79.53-1.39,2.32-2.83,3.81-3.24,9.76-2.71,19.6-5.14,30.54-7.95ZM411.88,409.7c-3.91.77-6.97,1.03-8.12,5.59-7.77,30.84-16.2,61.52-23.62,92.44-3.1,12.93-6.68,25.04-17.76,33.55,12.36-5.43,20.02-14.79,23.24-27.77,2.41-9.7,4.44-19.49,6.92-29.16,6.31-24.67,12.76-49.3,19.34-74.63Z"/>
  <path class="cls-2" d="M336.36,425.08c.76,12.81,1.42,24.77,2.2,36.72.96,14.8,2.04,29.59,3.04,44.38,1.26,18.71-7.63,32.1-22.41,42.81-13.91-10.91-22.5-24.22-20.69-42.47,2.29-23.21,4.82-46.4,7.38-69.58.17-1.5,1.22-3.82,2.34-4.15,9.06-2.72,18.23-5.05,28.14-7.71ZM333.4,431.4c-.33-.23-.65-.45-.98-.68-.82,1.46-2.36,2.94-2.33,4.38.11,5.15.87,10.29,1.17,15.44,1.25,21.44,2.78,42.86,3.47,64.32.31,9.51-2.94,18.36-9.8,25.48-.71.73-1.3,1.58-1.94,2.38.95-.05,1.53-.39,2.03-.81.76-.64,1.5-1.32,2.21-2.02,9.66-9.47,12.6-21.32,11.71-34.31-1.71-24.74-3.68-49.46-5.54-74.19Z"/>
  <path class="cls-2" d="M238.89,450.59c9.82-2.37,19.35-4.66,29.25-7.05.58,1.15,1.24,2.24,1.7,3.41,7.64,19.36,15.37,38.68,22.84,58.1,5.53,14.38,3.76,28.07-4.65,40.99-1.56,2.4-3.08,2.97-5.73,1.76-14.64-6.69-25.81-16.6-29.62-32.86-4.75-20.26-9.1-40.61-13.59-60.93-.24-1.07-.14-2.21-.2-3.42ZM264.43,446.34c-.38.33-.76.67-1.15,1,.7,1.81,1.39,3.63,2.1,5.44,6.7,17.19,13.72,34.26,19.99,51.6,4.49,12.41,7.91,25.18.18,38,2.62-3.57,4.95-7.2,6.26-11.17,2.67-8.08,1.47-16.25-1.48-23.97-7.49-19.56-15.3-38.99-23.09-58.43-.41-1.03-1.85-1.65-2.81-2.46Z"/>
  <path class="cls-3" d="M446.14,426.49c25.56,1.06,49.66-3.46,72.93-17.1-12.75-3.74-24.06-8.35-35.25-16.71,22.91-1.4,44.21-2,64.14,8.06,9.22,4.65,15.08,12.23,17.94,22.26.85,2.97.54,4.9-2.4,5.86-7.71,2.5-15.3,5.91-23.22,7.09-30.91,4.61-61.38,2.48-91.01-8.12-1.07-.38-2.09-.89-3.13-1.34Z"/>
  <path class="cls-4" d="M203.86,324.68c-25.49-.82-49.47,3.68-71.77,16.82,9.64,4.14,19,8.16,28.37,12.17-.18.56-.37,1.12-.55,1.69-19.02,1.49-38.05,2.42-56.34-4.87-10.02-3.99-16.7-11.09-19.14-22.04-.82-3.67.24-5.64,3.27-6.48,9.89-2.75,19.73-6.4,29.83-7.54,27.61-3.13,54.89-.84,81.36,8.27,1.69.58,3.33,1.32,4.99,1.99Z"/>
  <g>
    <path class="cls-5" d="M112.67,430.92c-2.26-14.21-4.52-28.46-6.79-42.74,2.6.4,5.2.76,7.8,1.08,2.26,14.2,4.52,28.37,6.79,42.51-2.6-.24-5.2-.52-7.8-.84ZM115.69,420.71c-.86-3.52-1.73-7.04-2.59-10.57,5.18-6.35,10.36-12.87,15.55-19.56,3.41.19,6.82.32,10.23.37-7.73,10.28-15.45,20.22-23.18,29.76ZM136.53,432.69c-6.52-7.25-13.05-14.75-19.57-22.52,1.64-1.46,3.28-2.93,4.92-4.43,8.14,9.41,16.27,18.39,24.41,27.01-3.25.04-6.51.02-9.76-.06Z"/>
    <path class="cls-5" d="M152.99,432.59c3.05-14.04,6.11-28.13,9.16-42.27,2.64-.18,5.28-.4,7.91-.64-2.9,14.2-5.8,28.37-8.7,42.49-2.79.18-5.58.33-8.38.43ZM159.01,423.11c-.39-2.39-.78-4.77-1.17-7.16,8.45-.45,16.91-1.27,25.36-2.41.39,2.36.78,4.71,1.17,7.06-8.45,1.16-16.91,2.02-25.36,2.5ZM184.94,429.72c-7.42-12.9-14.84-26.03-22.27-39.44,2.64-.18,5.28-.4,7.91-.66,7.58,13.2,15.15,26.13,22.73,38.83-2.79.45-5.58.88-8.38,1.26Z"/>
    <path class="cls-5" d="M203.94,426.58c-2.26-13.5-4.52-27.02-6.79-40.56,2.64-.46,5.28-.94,7.91-1.45,2.26,13.49,4.52,26.97,6.79,40.43-2.64.55-5.28,1.08-7.91,1.58Z"/>
    <path class="cls-5" d="M226.42,421.74c-2.26-13.39-4.52-26.79-6.79-40.21,2.75-.62,5.51-1.27,8.26-1.93,8.1,7.39,16.21,14.59,24.31,21.65-1.52-8.92-3.04-17.85-4.56-26.78,2.62-.72,5.24-1.46,7.86-2.22,2.26,13.28,4.52,26.55,6.79,39.81-2.62.78-5.24,1.54-7.86,2.29-8.25-7.17-16.5-14.48-24.75-21.99,1.55,9.15,3.1,18.3,4.64,27.43-2.64.67-5.28,1.32-7.91,1.96Z"/>
    <path class="cls-5" d="M276.85,407.63c-2.26-13.23-4.52-26.46-6.79-39.7,5.01-1.52,10.01-3.09,15.02-4.68,2.85-.9,5.47-1.16,7.85-.75,2.39.41,4.36,1.4,5.94,2.98,1.57,1.58,2.58,3.67,3.03,6.27.44,2.56.23,5.04-.62,7.43-.85,2.39-2.22,4.49-4.1,6.32-1.88,1.82-4.19,3.18-6.93,4.05-2.58.83-5.16,1.65-7.74,2.46.75,4.38,1.5,8.76,2.25,13.14-2.64.84-5.28,1.67-7.91,2.49ZM281.29,384.87c2.52-.79,5.04-1.59,7.57-2.4,1.77-.57,3.13-1.61,4.07-3.13.94-1.52,1.25-3.18.94-4.99-.31-1.81-1.19-3.08-2.63-3.81-1.45-.73-3.15-.78-5.12-.16-2.31.73-4.62,1.46-6.93,2.19.7,4.1,1.4,8.2,2.1,12.29Z"/>
    <path class="cls-5" d="M336.06,389.17c-4.08,1.32-7.84,1.63-11.28.9-3.44-.72-6.31-2.33-8.61-4.82-2.3-2.49-3.79-5.73-4.47-9.73-.69-3.99-.41-7.82.84-11.47,1.25-3.65,3.27-6.85,6.07-9.6,2.8-2.75,6.23-4.79,10.27-6.11,4.04-1.32,7.78-1.61,11.2-.86,3.42.75,6.28,2.38,8.58,4.9,2.3,2.52,3.79,5.78,4.47,9.78.68,3.97.4,7.76-.82,11.39-1.22,3.63-3.23,6.81-6.01,9.54-2.78,2.74-6.19,4.76-10.24,6.07ZM334.85,382.1c2.43-.79,4.48-2.06,6.17-3.82,1.69-1.76,2.89-3.81,3.61-6.17.71-2.36.85-4.84.4-7.44-.45-2.6-1.38-4.73-2.8-6.39-1.42-1.65-3.17-2.75-5.26-3.29-2.08-.54-4.38-.4-6.88.42-2.43.79-4.49,2.08-6.2,3.85-1.71,1.77-2.93,3.84-3.67,6.19-.74,2.35-.88,4.85-.42,7.48.45,2.6,1.38,4.72,2.8,6.36,1.42,1.64,3.19,2.73,5.32,3.24,2.12.52,4.44.37,6.94-.44Z"/>
    <path class="cls-5" d="M376.09,376.05c-1.86-10.9-3.72-21.8-5.57-32.69-4.04,1.2-8.09,2.43-12.13,3.68-.4-2.36-.81-4.72-1.21-7.09,10.71-3.32,21.41-6.49,32.12-9.39.4,2.38.81,4.76,1.21,7.14-4.02,1.08-8.05,2.2-12.07,3.36,1.86,10.91,3.72,21.83,5.57,32.75-2.64.74-5.28,1.49-7.92,2.25Z"/>
    <path class="cls-5" d="M399.43,369.69c3.05-14.7,6.11-29.38,9.16-44.03,2.64-.62,5.28-1.23,7.91-1.81-2.9,14.57-5.8,29.16-8.7,43.78-2.79.66-5.58,1.35-8.38,2.06ZM405.45,359c-.39-2.31-.78-4.63-1.17-6.94,8.45-2.07,16.91-3.93,25.36-5.53.39,2.33.78,4.67,1.17,7-8.45,1.58-16.91,3.42-25.36,5.47ZM431.38,362.63c-7.42-12.56-14.84-24.91-22.27-37.09,2.64-.62,5.28-1.22,7.91-1.8,7.58,12.27,15.15,24.74,22.73,37.43-2.79.46-5.58.94-8.38,1.46Z"/>
    <path class="cls-5" d="M456.08,341.62c-6.18-7.46-12.36-14.74-18.54-21.88,3-.51,6.01-.98,9.01-1.41,5.55,6.72,11.11,13.57,16.66,20.57-2.38.88-4.75,1.79-7.13,2.72ZM458.65,358.59c-1.09-6.57-2.17-13.13-3.26-19.69,2.64-.31,5.28-.59,7.91-.84,1.09,6.58,2.17,13.17,3.26,19.77-2.64.22-5.28.47-7.91.76ZM463.53,340.84c-2.59-.41-5.18-.8-7.77-1.15,3.11-7.89,6.22-15.73,9.33-23.53,3-.27,6.01-.49,9.01-.66-3.52,8.38-7.05,16.83-10.57,25.34Z"/>
    <path class="cls-5" d="M510.06,358.29c-4.08-.32-7.84-1.44-11.28-3.4-3.44-1.96-6.31-4.54-8.61-7.78-2.3-3.24-3.79-6.95-4.47-11.15-.69-4.21-.4-7.95.84-11.21,1.24-3.26,3.27-5.82,6.07-7.63,2.8-1.81,6.22-2.65,10.27-2.45,4.04.2,7.78,1.41,11.2,3.59,3.42,2.18,6.28,5.08,8.58,8.63,2.3,3.55,3.79,7.51,4.48,11.84.68,4.28.4,7.95-.82,11.01-1.23,3.06-3.23,5.31-6.01,6.82-2.78,1.51-6.19,2.06-10.24,1.74ZM508.85,350.73c2.42.18,4.49-.24,6.17-1.28,1.69-1.04,2.89-2.58,3.61-4.63.71-2.05.85-4.47.4-7.27-.44-2.8-1.38-5.34-2.8-7.59-1.42-2.26-3.17-4.09-5.26-5.48-2.08-1.39-4.38-2.16-6.88-2.29-2.43-.13-4.49.4-6.2,1.56-1.71,1.17-2.93,2.81-3.67,4.9-.74,2.1-.88,4.55-.42,7.34.45,2.75,1.38,5.19,2.8,7.34,1.42,2.14,3.19,3.86,5.32,5.17,2.12,1.31,4.44,2.05,6.94,2.23Z"/>
  </g>
</svg>